<svg width="118" height="96"><g fill-rule="nonzero" fill="#FF302C"><path d="M59 .072L42.902 9.584c-1.463 1.756-3.22 4.83-3.22 8.488 0 3.659.878 6.878 2.489 8.487l32.782 10.244V9.583L59 .072zM35.731 13.39l-8.927 5.414v37.464l8.78 5.415V30.658c-1.463-1.757-2.633-4.977-2.633-8.635 0-3.659 1.171-6.877 2.78-8.633zM59 75.002l16.1-9.516c2.924-1.756 2.924-4.828 2.924-8.486 0-3.658-.73-6.879-2.34-8.488L42.902 38.268v27.219L59 75.002zM82.707 61.536l9.951-5.416V18.657l-10.242-5.415v31.025c1.463 1.757 2.926 4.978 2.926 8.635 0 3.806-1.026 6.878-2.635 8.634z"/><g><path d="M1.487 90.22v5.561H.169V83.489h1.317v5.413H4.56v-5.561h1.318v12.292H4.56v-5.562H1.487zM12.609 86.412v.295h-1.317v-.439c0-1.171-.439-1.756-1.463-1.756s-1.463.585-1.463 1.756c0 2.782 4.097 3.073 4.097 6.438 0 1.904-.878 3.074-2.781 3.074-1.902 0-2.78-1.17-2.78-3.074v-.733h1.317v.733c0 1.171.439 1.757 1.463 1.757 1.025 0 1.464-.586 1.464-1.757 0-2.779-4.098-3.071-4.098-6.438 0-1.901.878-3.073 2.78-3.073 1.903.147 2.781 1.317 2.781 3.217zM16.561 88.902h3.365v1.17h-3.365zM26.805 83.342c1.902 0 2.78 1.17 2.78 3.07v6.15c0 1.9-.878 3.071-2.78 3.071h-2.927V83.342h2.927zm0 11.121c1.025 0 1.463-.586 1.463-1.757v-6.294c0-1.167-.438-1.755-1.463-1.755H25.34v9.806h1.465zM35.292 88.902v1.17H32.22v4.391h3.658v1.317h-5.122V83.489h5.122v1.317H32.22v4.096zM38.219 83.342l2.049 10.682 2.049-10.682h1.316l-2.341 12.292h-2.049l-2.342-12.292zM48.902 88.902v1.17h-3.073v4.391h3.659v1.317h-5.122V83.489h5.122v1.317h-3.659v4.096zM50.804 95.634V83.342h1.317v10.976h3.513v1.316zM56.659 86.412c0-1.9.877-3.07 2.78-3.07 1.903 0 2.78 1.17 2.78 3.07v6.294c0 1.904-.877 3.074-2.78 3.074-1.903 0-2.78-1.17-2.78-3.074v-6.294zm1.316 6.443c0 1.168.439 1.755 1.464 1.755s1.462-.587 1.462-1.755v-6.443c0-1.167-.438-1.755-1.462-1.755s-1.464.733-1.464 1.755v6.443zM66.316 83.342c1.902 0 2.781 1.17 2.781 3.07v1.465c0 1.902-.879 2.929-2.926 2.929H65v4.828h-1.316V83.342h2.632zm-.144 6.293c1.021 0 1.465-.439 1.465-1.61v-1.612c0-1.167-.443-1.755-1.465-1.755h-1.32v4.978h1.32v-.001zM75.83 84.657c-1.025 0-1.611.588-1.611 1.755V87c0 1.024.586 1.61 1.465 1.61H77v-1.315h1.318v1.315h.584v1.169h-.584v4.244c0 .587 0 1.026.293 1.61h-1.318c-.146-.294-.146-.584-.293-1.023-.293.729-1.023 1.17-1.9 1.17-1.465 0-2.197-1.025-2.197-2.78v-1.17c0-1.173.439-2.195 1.463-2.635-1.023-.293-1.463-1.318-1.463-2.488v-.295c0-1.9.877-3.07 2.928-3.07h2.051v1.315H75.83zm0 5.27c-1.025 0-1.465.73-1.465 1.903V93c0 1.023.439 1.755 1.465 1.755.73 0 1.316-.438 1.316-1.462v-3.221H75.83v-.145zM85.635 83.342c1.902 0 2.779 1.17 2.779 3.07v6.15c0 1.9-.877 3.071-2.779 3.071h-2.928V83.342h2.928zm0 11.121c1.025 0 1.463-.586 1.463-1.757v-6.294c0-1.167-.438-1.755-1.463-1.755h-1.463v9.806h1.463zM94.123 88.902v1.17h-3.074v4.391h3.66v1.317h-4.977V83.489h5.121v1.317h-3.656v4.096zM101.293 86.412v.295h-1.316v-.439c0-1.171-.439-1.756-1.463-1.756-1.025 0-1.463.585-1.463 1.756 0 2.782 4.096 3.073 4.096 6.438 0 1.904-.877 3.074-2.777 3.074-1.904 0-2.783-1.17-2.783-3.074v-.733h1.465v.733c0 1.171.438 1.757 1.463 1.757 1.023 0 1.463-.586 1.463-1.757 0-2.779-4.098-3.071-4.098-6.438 0-1.901.877-3.073 2.779-3.073 1.755.147 2.634 1.317 2.634 3.217zM103.93 83.342v12.292h-1.318V83.342zM110.807 86.412v1.027h-1.316v-1.172c0-1.171-.439-1.756-1.465-1.756s-1.465.733-1.465 1.756v6.438c0 1.171.439 1.757 1.465 1.757s1.465-.73 1.465-1.757v-2.339h-1.318v-1.172h2.635v3.66c0 1.899-.879 3.072-2.781 3.072-1.902 0-2.781-1.173-2.781-3.072V86.56c0-1.904.879-3.072 2.781-3.072 1.901-.146 2.78 1.024 2.78 2.924zM113.293 95.634h-1.17V83.342h1.754l2.785 8.926v-8.926h1.168v12.292h-1.463l-3.074-9.951v9.951z"/></g></g></svg>